<?xml version="1.0" standalone="no"?>
<!DOCTYPE svg PUBLIC "-//W3C//DTD SVG 20010904//EN">
<svg version="1.0" xmlns="http://www.w3.org/2000/svg"
 width="260.000000pt" height="260.000000pt" viewBox="0 0 260.000000 260.000000"
 preserveAspectRatio="xMidYMid meet">
<metadata>
Created by potrace 1.14, written by Peter Selinger 2001-2017
</metadata>
<g transform="translate(0.000000,260.000000) scale(0.100000,-0.100000)"
fill="#000000" stroke="none">
<path d="M1677 2163 c6 -16 5 -17 -12 -3 -11 9 -16 10 -11 3 4 -8 2 -13 -8
-13 -8 0 -16 6 -19 13 -3 9 -8 9 -18 -2 -9 -8 -9 -11 -2 -7 9 5 11 2 7 -8 -5
-14 -8 -14 -21 -1 -17 17 -27 20 -18 5 4 -7 -3 -9 -19 -6 -14 3 -29 0 -32 -6
-4 -6 -2 -8 4 -4 6 3 13 2 16 -3 9 -13 -19 -7 -38 8 -11 9 -16 10 -16 2 0 -6
5 -11 11 -11 5 0 7 -5 4 -10 -5 -8 -11 -7 -21 1 -12 9 -13 9 -9 -3 4 -9 0 -15
-9 -15 -8 0 -13 4 -10 8 2 4 0 10 -5 13 -5 4 -8 -4 -7 -17 3 -20 -1 -23 -28
-19 -24 3 -28 1 -16 -7 13 -9 12 -11 -5 -12 -11 -1 -25 -3 -32 -3 -6 -1 -15
-5 -20 -10 -4 -5 -3 -6 4 -2 6 3 14 2 17 -3 4 -5 -2 -8 -11 -6 -10 2 -22 4
-26 4 -5 1 -5 6 -1 13 4 7 3 8 -5 4 -9 -6 -9 -11 1 -24 10 -12 10 -14 1 -8 -8
4 -13 2 -13 -5 0 -8 -5 -7 -17 2 -15 13 -15 12 -3 -11 13 -24 12 -24 -5 -10
-17 14 -18 13 -12 -4 6 -16 5 -17 -8 -6 -12 10 -15 9 -15 -5 0 -12 -6 -16 -20
-12 -23 6 -36 -8 -19 -19 8 -5 9 -3 4 6 -5 9 -4 11 4 6 6 -4 9 -12 5 -17 -3
-6 -16 -3 -32 7 -23 15 -25 15 -14 1 16 -18 8 -37 -15 -37 -10 0 -13 -6 -9
-16 3 -8 2 -12 -4 -9 -6 3 -10 1 -10 -5 0 -6 -5 -8 -11 -5 -13 8 -44 -24 -44
-45 0 -8 -7 -13 -15 -12 -8 2 -12 0 -8 -3 12 -12 -11 -46 -25 -38 -7 4 -6 0 2
-10 12 -16 12 -17 -5 -10 -17 6 -18 5 -4 -12 8 -10 10 -16 3 -12 -7 4 -14 0
-18 -11 -3 -11 -15 -24 -28 -31 -21 -11 -21 -11 3 -5 23 5 23 5 8 -7 -10 -8
-20 -25 -22 -39 -3 -14 -5 -26 -7 -27 -1 -2 -3 -7 -4 -13 -1 -5 -4 -12 -5 -15
-1 -3 -3 -9 -4 -15 0 -5 -10 -20 -21 -32 -11 -13 -19 -26 -18 -29 1 -3 -9 -4
-22 -1 -15 2 -25 0 -25 -7 0 -7 6 -9 13 -5 7 4 9 3 4 -2 -5 -5 -12 -9 -15 -9
-4 -1 -17 -6 -28 -13 -12 -6 -24 -8 -28 -5 -15 16 -33 10 -29 -8 4 -15 1 -18
-11 -13 -9 3 -16 10 -16 16 0 5 -5 6 -11 3 -6 -5 -4 -11 7 -19 16 -12 16 -13
0 -19 -10 -4 -15 -3 -11 3 3 6 1 10 -4 10 -6 0 -11 -7 -11 -15 0 -8 -5 -15
-11 -15 -5 0 -7 6 -3 13 6 9 5 9 -8 0 -8 -7 -18 -9 -23 -5 -4 4 -3 -2 3 -14 9
-17 8 -20 -6 -19 -10 0 -23 5 -30 9 -7 4 -16 5 -19 2 -4 -3 -2 -6 4 -6 5 0 10
-6 10 -14 0 -7 -7 -13 -16 -12 -9 1 -16 -5 -16 -11 0 -7 -3 -13 -7 -13 -5 0
-10 0 -13 0 -3 0 -1 10 5 23 11 21 11 22 -5 2 -9 -11 -20 -20 -25 -20 -4 0
-12 -4 -17 -9 -5 -5 -3 -6 4 -2 7 4 13 2 13 -5 0 -6 -8 -9 -19 -6 -15 4 -19 0
-16 -14 4 -18 -9 -27 -18 -11 -2 4 -3 2 -1 -4 3 -16 -33 -68 -53 -75 -11 -4
-17 -17 -17 -40 -1 -25 -5 -34 -18 -34 -9 0 -20 -4 -25 -9 -4 -5 -3 -6 3 -3 7
4 17 1 23 -7 9 -10 7 -13 -6 -12 -10 0 -19 -3 -20 -9 -2 -5 1 -10 6 -10 5 0
13 -4 18 -9 4 -5 3 -6 -4 -2 -6 3 -14 2 -18 -4 -4 -6 -10 -8 -15 -5 -11 7 -7
-22 5 -32 4 -4 5 -2 0 6 -6 10 -4 12 4 7 9 -6 9 -11 0 -22 -6 -7 -16 -11 -22
-7 -7 4 -8 0 -3 -12 5 -15 4 -16 -9 -5 -13 11 -14 10 -8 -6 6 -17 5 -17 -10
-5 -15 12 -17 12 -11 -4 5 -12 4 -16 -4 -11 -7 4 -8 -2 -2 -24 7 -23 5 -32 -8
-40 -10 -5 -12 -10 -4 -10 6 0 12 -5 12 -11 0 -6 -7 -8 -16 -5 -14 5 -15 4 -4
-9 7 -8 16 -12 21 -9 5 3 9 0 9 -7 0 -7 7 -20 16 -30 8 -9 16 -26 17 -37 0
-11 4 -20 7 -20 17 1 30 -3 30 -12 0 -5 -8 -7 -18 -5 -9 3 -3 -1 13 -9 17 -8
23 -16 15 -17 -8 0 -4 -4 9 -8 22 -6 21 -7 -15 -24 -22 -10 -32 -12 -22 -4 15
12 14 14 -15 14 -18 0 -26 -2 -19 -5 20 -6 13 -25 -8 -19 -11 3 -20 0 -20 -5
0 -6 -8 -4 -17 3 -9 8 -14 9 -11 4 4 -6 3 -17 -3 -25 -6 -10 -9 -11 -9 -2 0 6
-4 12 -10 12 -5 0 -7 -7 -3 -15 3 -9 2 -15 -3 -14 -5 1 -18 1 -29 0 -17 -1
-18 -3 -5 -11 11 -7 11 -10 2 -10 -7 0 -10 -4 -7 -10 6 -10 -6 -14 -35 -11 -8
1 -5 -5 8 -12 l23 -13 -23 -12 c-13 -7 -15 -10 -5 -7 15 4 17 1 12 -15 -4 -12
-2 -20 5 -20 7 0 10 -8 7 -20 -3 -11 0 -23 5 -27 7 -4 8 -1 4 8 -4 8 -1 6 7
-3 8 -10 18 -14 22 -10 5 4 5 1 1 -5 -4 -8 -1 -13 8 -13 9 0 16 -4 16 -10 0
-5 8 -7 18 -4 16 5 16 5 -1 -9 -17 -14 -17 -15 7 -13 13 0 22 5 18 10 -3 5 2
6 12 3 10 -4 20 -7 23 -7 3 0 -1 -8 -8 -17 -13 -17 -13 -17 5 -3 20 15 69 23
60 8 -8 -12 10 -10 25 5 12 10 13 9 7 -7 -5 -15 -4 -17 7 -8 8 7 17 9 20 5 4
-3 7 0 7 7 0 9 5 8 13 -5 10 -13 16 -15 21 -6 4 6 12 8 18 5 7 -5 8 -2 3 6 -6
10 -4 12 8 7 12 -4 17 -1 17 11 0 10 3 13 8 7 13 -18 35 -17 28 1 -6 15 -4 15
11 3 9 -8 14 -9 10 -2 -4 6 5 21 21 35 16 13 27 29 24 36 -2 7 1 12 7 12 6 0
11 -5 11 -12 0 -6 3 -8 6 -5 4 4 1 13 -6 22 -10 12 -10 15 1 15 10 0 10 3 2
11 -6 6 -9 18 -6 25 3 8 0 14 -6 14 -5 0 -15 10 -22 21 -6 12 -7 19 -2 16 5
-3 10 3 10 14 1 10 -3 19 -8 19 -6 0 -7 -4 -4 -10 3 -5 2 -10 -3 -10 -6 0 -13
7 -16 16 -3 8 -2 12 3 9 5 -3 13 0 17 6 4 8 9 7 15 -2 8 -12 10 -12 18 -1 11
17 21 17 32 0 7 -10 9 -10 9 3 0 17 42 21 57 5 4 -5 2 -6 -4 -2 -7 4 -13 2
-13 -3 0 -6 8 -11 18 -11 15 0 15 -2 2 -11 -12 -9 -11 -10 7 -6 24 5 40 -7 23
-18 -6 -4 -8 -11 -4 -16 3 -6 12 -5 22 3 13 11 14 11 7 -1 -6 -11 -3 -13 13
-9 15 4 19 2 15 -8 -6 -17 9 -18 25 -2 16 16 16 -4 0 -22 -11 -12 -10 -12 3
-2 9 6 20 8 24 4 5 -4 5 0 1 8 -5 9 -2 8 7 -2 16 -20 37 -24 37 -7 0 5 5 7 10
4 6 -4 8 -12 4 -18 -3 -7 1 -5 8 4 11 14 15 14 26 3 7 -8 18 -14 25 -13 9 0 9
2 0 6 -24 9 -13 19 20 18 22 -1 31 -6 29 -16 -1 -8 4 -6 13 5 8 11 15 15 15
10 0 -6 7 -11 15 -11 11 0 12 4 4 14 -16 18 -4 16 15 -3 9 -8 16 -11 16 -5 0
6 5 11 11 11 6 0 9 -6 6 -13 -3 -7 3 -13 13 -13 10 0 16 5 13 11 -2 7 3 12 11
12 8 0 13 -4 10 -9 -3 -4 2 -8 11 -8 10 0 14 5 10 13 -4 6 0 4 8 -5 15 -18 33
-25 23 -9 -3 5 1 12 10 15 8 3 12 2 9 -4 -3 -5 4 -8 15 -7 11 1 19 6 16 12 -2
6 5 11 15 11 13 0 15 -4 8 -12 -7 -8 -6 -15 3 -20 7 -4 10 -4 6 1 -4 4 0 14 8
22 8 8 11 19 8 25 -4 6 2 6 14 -1 18 -9 23 -8 32 8 7 14 7 22 -1 27 -9 5 -6
11 6 21 11 7 14 13 8 13 -13 0 -11 25 2 37 4 4 5 3 1 -4 -3 -6 -1 -15 6 -19 7
-4 10 -4 6 1 -4 4 -2 15 5 23 6 9 7 13 2 10 -6 -4 -17 -3 -25 3 -10 6 -11 9
-2 9 6 0 12 5 12 11 0 5 -4 8 -8 5 -5 -3 -9 0 -10 7 0 7 -3 22 -6 34 -3 14 2
30 12 40 16 16 16 16 0 11 -10 -4 -22 0 -30 9 -11 15 -11 16 5 10 13 -5 17 -3
14 5 -2 7 -10 12 -16 10 -7 -1 -10 2 -6 8 3 6 11 8 16 5 5 -4 9 3 9 14 0 12 5
21 11 21 5 0 7 -5 3 -11 -4 -7 4 -10 22 -8 16 2 38 -2 49 -9 11 -6 15 -12 9
-12 -5 0 -15 5 -22 12 -9 9 -12 9 -12 0 0 -14 1 -14 52 -16 20 -1 34 2 32 6
-3 5 -9 6 -14 3 -5 -3 -11 -2 -14 3 -2 4 6 8 20 8 13 0 24 -5 24 -10 0 -6 5
-4 10 4 5 8 10 10 10 4 0 -6 7 -11 15 -11 11 0 12 4 3 14 -8 11 -7 12 6 7 9
-3 16 -11 16 -18 0 -6 5 -4 10 4 6 10 10 11 10 3 0 -7 5 -13 11 -13 5 0 7 5 3
12 -4 7 -3 8 5 4 6 -4 9 -11 6 -16 -3 -5 -1 -11 4 -14 5 -4 13 -1 17 5 4 8 3
9 -4 5 -8 -5 -10 -1 -5 10 4 11 8 13 11 6 2 -7 9 -9 14 -6 7 5 8 2 3 -6 -6 -9
-2 -10 15 -5 17 6 21 4 14 -6 -6 -10 -3 -10 11 1 10 8 16 10 12 3 -4 -6 -2
-15 4 -19 7 -4 9 -3 6 2 -3 6 -2 16 4 24 6 11 9 12 9 2 0 -8 5 -10 13 -6 9 6
9 5 0 -7 -10 -12 -8 -15 7 -15 10 0 18 3 17 7 -1 4 3 7 8 7 6 0 9 -4 7 -10 -1
-5 2 -7 8 -3 6 3 8 11 5 16 -4 5 -1 9 4 9 6 0 11 -4 11 -10 0 -5 5 -10 11 -10
5 0 8 4 5 8 -6 10 24 9 41 -1 6 -4 15 -2 19 4 5 8 3 9 -6 4 -9 -5 -11 -4 -6 4
6 9 11 9 22 0 11 -9 14 -8 14 7 0 15 2 16 9 5 5 -8 19 -15 30 -16 16 -1 18 1
9 12 -9 11 -7 12 7 7 14 -6 16 -4 10 7 -8 12 -6 12 8 0 14 -11 20 -11 32 -1 8
7 13 16 10 19 -2 4 2 8 10 8 10 0 11 -5 4 -18 -5 -10 -5 -20 -1 -23 8 -5 10 1
14 45 2 18 4 19 14 4 12 -16 31 -4 20 13 -4 7 9 11 51 14 7 1 10 5 7 10 -3 4
-1 8 5 8 6 0 8 7 5 15 -4 10 3 18 20 25 14 5 26 14 26 20 0 6 -5 8 -12 4 -7
-5 -8 -3 -4 5 5 7 15 10 24 6 9 -3 13 -3 10 1 -4 4 -2 16 4 28 7 11 11 24 10
29 -1 4 4 7 12 7 10 0 13 7 11 21 -3 15 0 19 10 15 20 -7 19 -1 -2 20 -16 16
-16 16 5 10 13 -5 22 -3 22 3 0 6 -6 11 -12 11 -10 0 -9 3 1 9 11 7 11 10 0
15 -8 3 -5 5 7 2 18 -3 20 -1 10 19 -6 13 -14 21 -19 18 -5 -3 -3 4 5 16 7 12
19 19 27 16 11 -4 11 -2 3 8 -7 8 -9 17 -5 20 3 4 -1 9 -10 13 -14 5 -14 7 1
23 9 10 20 16 24 14 4 -2 5 3 1 12 -4 13 -8 14 -14 4 -4 -8 -11 -11 -14 -7 -4
3 3 16 15 28 l22 22 -23 -7 c-20 -7 -22 -6 -12 7 10 11 10 17 0 27 -7 7 -8 14
-2 19 14 10 19 46 6 37 -6 -3 -11 -1 -11 4 0 6 5 11 12 11 6 0 1 9 -12 20 -13
11 -19 20 -14 20 6 0 16 -6 24 -12 8 -7 6 -3 -4 10 -11 12 -21 39 -23 60 -2
27 -1 33 7 22 5 -8 10 -10 10 -4 0 6 -8 18 -17 25 -9 8 -14 9 -10 3 3 -6 0
-11 -7 -11 -8 0 -11 9 -8 24 3 16 0 23 -9 21 -7 -2 -13 2 -14 9 0 6 -3 15 -7
19 -4 4 -3 13 3 20 8 10 3 18 -23 34 -18 11 -28 20 -23 20 6 0 -2 11 -17 24
-34 28 -35 36 -5 29 12 -3 19 -3 16 1 -4 4 -20 9 -35 10 -16 2 -32 4 -37 5 -4
0 -6 7 -5 14 2 6 -3 11 -10 9 -10 -2 -12 4 -7 20 5 18 4 20 -4 8 -6 -8 -11
-10 -11 -5 0 6 -4 5 -8 -2 -6 -9 -11 -6 -21 8 -9 16 -9 19 0 14 8 -5 10 -4 5
4 -6 9 -11 9 -24 -1 -10 -8 -13 -9 -9 -1 4 6 3 14 -3 18 -5 3 -10 1 -10 -5 0
-6 -5 -8 -10 -5 -8 5 -8 11 -1 19 8 10 3 11 -21 8 -23 -3 -29 -1 -23 8 6 9 3
10 -11 2 -14 -7 -25 -6 -38 4 -16 11 -17 16 -5 31 11 15 11 16 -1 6 -17 -15
-34 -17 -25 -3 3 6 -1 7 -9 4 -11 -4 -16 0 -16 12 0 16 -2 17 -10 4 -5 -8 -10
-10 -10 -4 0 6 -7 11 -15 12 -8 1 -21 3 -29 4 -8 1 -13 9 -11 21 4 16 2 17
-12 5 -14 -11 -16 -11 -8 1 6 11 4 13 -8 8 -9 -3 -19 -2 -22 3 -3 5 -13 6 -23
3 -14 -6 -15 -4 -4 9 10 13 10 18 1 24 -8 4 -9 3 -5 -4 5 -8 -2 -12 -18 -12
-14 0 -26 -6 -26 -12 -1 -7 -8 -1 -16 15 -16 30 -27 36 -17 10z m-566 -300
c-12 -20 -14 -14 -5 12 4 9 9 14 11 11 3 -2 0 -13 -6 -23z m1184 -63 c3 -6 -1
-7 -9 -4 -18 7 -21 14 -7 14 6 0 13 -4 16 -10z m-84 -793 c-10 -9 -11 -8 -5 6
3 10 9 15 12 12 3 -3 0 -11 -7 -18z m-121 -67 c0 -5 -5 -10 -11 -10 -5 0 -7 5
-4 10 3 6 8 10 11 10 2 0 4 -4 4 -10z m-667 -297 c-3 -7 -6 -13 -8 -13 -2 0
-5 6 -8 13 -3 8 1 14 8 14 7 0 11 -6 8 -14z m-893 -197 c0 -3 -4 -8 -10 -11
-5 -3 -10 -1 -10 4 0 6 5 11 10 11 6 0 10 -2 10 -4z"/>
<path d="M1705 2160 c-3 -6 1 -7 9 -4 18 7 21 14 7 14 -6 0 -13 -4 -16 -10z"/>
<path d="M1790 2139 c0 -5 5 -7 10 -4 6 3 10 8 10 11 0 2 -4 4 -10 4 -5 0 -10
-5 -10 -11z"/>
<path d="M1851 2114 c0 -11 3 -14 6 -6 3 7 2 16 -1 19 -3 4 -6 -2 -5 -13z"/>
<path d="M1870 2099 c0 -5 5 -7 10 -4 6 3 10 8 10 11 0 2 -4 4 -10 4 -5 0 -10
-5 -10 -11z"/>
<path d="M1970 2041 c0 -5 5 -13 10 -16 6 -3 10 -2 10 4 0 5 -4 13 -10 16 -5
3 -10 2 -10 -4z"/>
<path d="M2126 1973 c-6 -14 -5 -15 5 -6 7 7 10 15 7 18 -3 3 -9 -2 -12 -12z"/>
<path d="M1035 1820 c-3 -5 -1 -10 4 -10 6 0 11 5 11 10 0 6 -2 10 -4 10 -3 0
-8 -4 -11 -10z"/>
<path d="M2307 1769 c7 -9 10 -19 6 -23 -4 -4 1 -4 10 0 10 3 17 7 15 8 -2 1
-12 8 -23 16 -18 14 -19 13 -8 -1z"/>
<path d="M947 1635 c-4 -8 -1 -17 6 -21 7 -4 9 -4 5 1 -4 4 -3 14 3 22 7 8 8
13 1 13 -5 0 -12 -7 -15 -15z"/>
<path d="M928 1600 c10 -12 9 -18 -10 -33 -23 -18 -23 -18 -1 -8 31 16 35 27
15 42 -15 11 -15 11 -4 -1z"/>
<path d="M834 1504 c-18 -14 -18 -15 4 -4 12 6 22 13 22 15 0 8 -5 6 -26 -11z"/>
<path d="M2375 1300 c3 -5 8 -10 11 -10 2 0 4 5 4 10 0 6 -5 10 -11 10 -5 0
-7 -4 -4 -10z"/>
<path d="M456 1262 c-3 -5 1 -9 9 -9 8 0 12 4 9 9 -3 4 -7 8 -9 8 -2 0 -6 -4
-9 -8z"/>
<path d="M2240 1036 c0 -2 8 -10 18 -17 15 -13 16 -12 3 4 -13 16 -21 21 -21
13z"/>
<path d="M342 846 c7 -8 15 -12 17 -11 5 6 -10 25 -20 25 -5 0 -4 -6 3 -14z"/>
<path d="M1430 816 c0 -2 8 -10 18 -17 15 -13 16 -12 3 4 -13 16 -21 21 -21
13z"/>
<path d="M654 496 c-10 -8 -17 -16 -14 -19 3 -2 14 4 24 14 23 22 18 25 -10 5z"/>
</g>
</svg>
